# xmcd
#
# Track frame offsets:
#	150
#	8375
#	18965
#	28417
#	40852
#	52587
#	63390
#	74550
#	84980
#	92087
#
# Disc length: 1345 seconds
#
# Revision: 0
# Processed by: cddbd v1.4PL0 Copyright (c) Steve Scherf et al.
# Submitted via: dBpowerAMP V4.0
#
DISCID=70053f0a
DTITLE=Oak Ridge Boys - Oak Ridge Boys Sing Gospel
DYEAR=1996
DGENRE=Gospel
TTITLE0=Someday
TTITLE1=My Heavenly Father
TTITLE2=I Know My Saviour Is There
TTITLE3=Without God
TTITLE4=No One Cared So Much
TTITLE5=It's Different Now
TTITLE6=I'll Wake Up On The Other Side
TTITLE7=Wonderful Saviour
TTITLE8=Each Step I Take
TTITLE9=He Means All The World To Me
EXTD=
EXTT0=
EXTT1=
EXTT2=
EXTT3=
EXTT4=
EXTT5=
EXTT6=
EXTT7=
EXTT8=
EXTT9=
PLAYORDER=
